<svg xmlns="http://www.w3.org/2000/svg" viewBox="0 0 611.06 296.1"><defs><style>.a{fill:#50555d;opacity:0.3;}.b{fill:#202225;}.c{fill:#36393e;}.d{fill:#1f2124;}.e{fill:#4f545c;}.f{fill:#92ae9b;}.g{fill:#74917d;}.h{fill:#414342;}.i{fill:#ba8d98;}.j{fill:#72767d;}</style></defs><title>Ponymodz_Discord_Thing</title><path class="a" d="M63.08,640.81H41.85s-16.88-1.13-24.33-7.6-6.47-15.89-6.47-15.89l0-48.1c1.76-11.26,8.51-18.43,21.42-20.53H145.92c18.66-2.51,29.07-13,30.37-32.16l.57-120.5s-1.55-17.09,10.12-26.51a46.2,46.2,0,0,1,23.91-10.13l252.86-.28s14.77-1,20.82,7.46,5.91,22.08,5.91,22.08c1.38,10.72-1.38,24.26,16.31,23.9l56,.29c6.68,1.18,10.52,5,11.11,11.67v17c-.74,6.83-4.47,11.05-12.21,11.77l-54.56-.07c-11.47.9-15.34,9.29-14.12,22.7l-.15,72.61c-.11,10.45,5.79,16.05,18.76,15.93h69c11.86-.6,17.11,10.54,16.64,26.64v38.71c-.14,7.7-3,12.9-11.35,13.17Z" transform="translate(0.02 -347.51)"/><path class="b" d="M133.7,364c-.2-1.86.71-2.63,2.09-2.69,1.13-.07,1.63,1.09,1.52,2.9v2.12H139c.91.05,1.29.63,1.35,1.51s-.51,1.47-1.35,1.52H137.3v2.55c0,1.62-.56,2.46-1.91,2.39s-2-.9-1.75-2.47v-1.76h-1.83a1.94,1.94,0,0,1-1.6-1.9,2.18,2.18,0,0,1,1.68-1.84h1.75Zm136.59,75.56h-1.66c-1.44,0-2,.45-1.85,1.37-.16,1.2.36,1.89,1.76,1.92h1.75v2.77c-.14,1,.46,1.35,1.56,1.26.71,0,1.13-.46,1.29-1.26V442.9h2.18c1.25,0,1.94-.48,1.92-1.56s-.6-1.73-2-1.77h-1.67l0-2c0-1.51-.23-2.81-1.54-2.7-1.5-.11-1.68,1.06-1.64,2.44Zm233.1-42.88H502.3c-1.12,0-1.67.53-1.68,1.56-.13.85.35,1.42,1.6,1.63h1.17v1.91c0,.64.46.95,1.24,1,.59,0,1-.26,1.05-1V400l2.65,0a1.74,1.74,0,0,0,1.44-1.4c0-1-.46-1.44-1.48-1.33h-2.72l0-2c.1-.86-.15-1.37-.9-1.4-.92-.05-1.31.41-1.28,1.28Zm-274-13.87c-.79.89-.57,1.9.41,3a15.64,15.64,0,0,0,2.74,2.68,2.35,2.35,0,0,0,3.06.14c1.21-1.45.74-2.44-.76-3.66l-2.13-2C231.55,381.89,230.67,381.74,229.39,382.82Zm14.39,4.65a2.17,2.17,0,0,0,3.13,0l2.47-2.86c1.15-1,1.16-2,0-3.05-1.27-.77-2.29-.66-3.07.38l-2.8,2.67A1.88,1.88,0,0,0,243.78,387.47Zm-.55,8.82c-.74.81-.66,1.64.25,2.83l2.33,2.38c1.14,1.19,2.1,1.4,3.31.28.79-.85.78-2.08-.45-3.36l-2.1-2C245.25,395.15,244.36,395.3,243.23,396.29Zm-11.78.44-2.79,2.8a1.88,1.88,0,0,0,0,2.87,1.72,1.72,0,0,0,2.79.53l3.14-3.1a2.14,2.14,0,0,0-.4-3C233.5,396.18,232.91,396.06,231.45,396.73ZM0,641.9c-.09,1.06.86,1.53,2.33,1.69h605c2.23.13,3.59-.34,3.69-1.69s-1-2.18-3.69-2H583.17c-1.2,0-1.83-.45-1.82-1.42v-1.69l-.26-2.52c-.07-1.31-.65-2.06-2.07-1.88-1.65-.18-2.51.64-2.34,2.78v3.18c.07.81-.28,1.3-1.29,1.29-.76.19-1.18-.2-1.3-1.16l-1.88-4.73c-.34-1.35-1-2.14-2.14-2-1.64-.07-2.51.51-2.33,2l1.1,4.86c.09.92-.44,1.37-1.62,1.29H537.28c-.85-.11-1.28-.49-1.16-1.23v-2.4c.31-3.52-1.1-5.24-4.35-5l-16-.07c-2.83.21-4.32,1.51-4.67,3.76v3c0,1.3-.54,2-1.68,2H494.84c-2.06-.24-3.3-1.72-3.95-4l-1.77,4H410.65c-.73-.19-1.1-.58-1-1.23l-.71-2.33-1-1.92c-.73-1-1.24-1.57-2.24-1-1.38.43-1.69,1.2-1.1,2.27l.71,1.82.39,1.42a.82.82,0,0,1-.72,1H360.3c-1.17-6.67-4.65-7.35-7.81-7.8l2.16-6.45,42.13-132.08-6.41-33.44L371.9,367.45a3.26,3.26,0,0,0-2.85-1.81,2.74,2.74,0,0,0-2.66,1.94l-45.17,190L302.69,636c-1,2.75-2.49,4.08-4.48,3.88h-61c-2.69,0-4.65-1.69-5.91-5l-2.39,5H73.34c-.63,0-1-.32-.91-.84v-2.66c.08-.83-.37-1.41-1.68-1.55-1.34,0-1.91.62-1.75,1.68v2.53c.11.56-.25.8-.91.84H42.17c-.92,0-1.65-.53-2.08-2l-5.44-24.3c-.63-1.4-1.33-1.19-2.07,0l-7.85,24.95c-.37,1-.95,1.47-1.75,1.36H2.31C.7,640-.1,640.65,0,641.9Zm521.2-9.45V629a5.08,5.08,0,0,0-4.75-3.4h-14.7c-3.66.11-5.37,1.66-5.11,4.66v10.93l24.56.36ZM396.3,495l24.59-83.46c.73-4.71,3.79-4.59,4.59-.13l63.58,229.69h3.27L426.05,399c-1.31-5.24-4.68-4.86-5.68,0l-26.78,93.72ZM85.22,640l14.63-43.55c.69-2.85-3.27-3.86-4.29-1.31l-15.51,45Zm23.83-70.18,50.29-143.23c.81-1.53,1.6-1.58,2.37.07l7,18.57c1.14,3,4.58,2,3.59-1.4l-8-22.16c-2.45-4.41-4.87-4.94-7.28,0L104.15,568.12C102.91,571.94,107.8,573.44,109.05,569.79Zm63.7-112.58,3.06,10.86c1,2.56,4,1.32,3.51-1.14l-2.89-10.69C175.51,453.77,172.49,454.74,172.75,457.21ZM233,640.05l-1.57-4.73L183.79,480.51a2.07,2.07,0,1,0-3.95,1.23l48.63,158.31M165.55,390.4c-4,13.65,8.65,19.65,22.32,12.62,2.53-1.75,1.36-2.72,0-4.47a54,54,0,0,0-11.39-11.26c-1.7-1.3-4.23-1.27-8,.78a6.29,6.29,0,0,1-2.43-4.25l-3.07-.28A14.3,14.3,0,0,0,165.55,390.4Zm158.28-18.5a15.25,15.25,0,0,1-3.45-4.21c8-9.21-1.49-14.6-11.08-20-1.57-.48-2.67-.15-3,1.46-3.56,13.76-3,23.65,11.39,20.34a18.93,18.93,0,0,0,3.57,4.24Zm280,159.84c-.38-2-1.64-2.71-3.67-2.31-24.48,3.48-48.76,7.11-33.55,41.17a10.29,10.29,0,0,1,.54,8c-6.53,10.09-10.64,22.46-12.09,37.36-.54.8-1.12.79-1.77,0l-5.16-11.68a5.16,5.16,0,0,1-.54-4.76c4.21-25.92-11.34-30.75-38.59-23.09-1.63.49-2.16,1.62-1.62,3.39,4.51,28.35,15.8,39,35.18,28.53,1.5-.92,2.65-1,3.4,0,5,5.63,7.08,15.13,6.66,28-.08,1.89-1.38,3-3.58,3.52h13.51c-2.45-.33-3.85-1.62-4.09-4-.12-23.34,3.58-42.35,13-54.86,1.65-2.52,4.48-3.43,8.69-2.45C608,580.23,604.5,554.75,603.85,531.74Zm-58.78,63.31c-.2,2.77-1.66,2.47-3.85.38a45,45,0,0,0-13.43-10.09c-2.34.49-2.84,1.74-2.07,3.51A73.26,73.26,0,0,1,540.32,601c1.25,1.62,1.51,3.14,0,4.48-19.09,10.5-24-6.1-28.3-24-.53-1.71.1-2.81,1.58-3.23C530.77,575.8,546.32,575.24,545.07,595.05Zm-429-97.22c-19.48-1.44-41.67,6.69-26.3,29-5.21,7.82-8.32,15.56-9.44,23.24-.79.8-1.56.86-2.3-.08-1.39-15.43-5.33-28.82-12-40a9.68,9.68,0,0,1,.08-7.21C77.06,467.57,53.6,464,27.06,463.24c-3.88-.4-5.37,1.44-5.45,4.6-1.43,29.54,2.47,53.17,34.82,45.25,3.91-1.71,5.6-2.69,6.52,0,8.18,14.61,12.13,34.68,13,58.79.29,1-.2,2.13-1.23,3.4a1.81,1.81,0,0,1-2.15-.46l-1.61-1.38c-1.29-1.55-1.41-3.49-.53-5.76,6-22.52-13.19-26.73-33.13-30.44-3.81-.47-5.76,1-5.14,5.22,3,28,9.54,49,34.28,33.51l5.29,5.21c-.51,2.85-.69,6.44,1.23,8.9a12.09,12.09,0,0,1,4,8.59v41.22h3.68l1-46.24c9.32-2.27,14.47-8.72,16.26-18.53.24-3.24.35-4.61-2.07-5.13a24.25,24.25,0,0,0-14.19,1.17c0-13.47,5.13-28.34,13.11-41.2,18.67,7,25.43-5.64,25.69-28.93C119.69,498.21,118.62,498.14,116.09,497.83Zm-53.39.22c-1.48,3-3.53,4-6.38,1.14a35.24,35.24,0,0,0-9.67-8.43c-3.19-1-4.61,1.14-2.68,2.85A36,36,0,0,1,53.25,502c2,3.32,1.71,6-2.39,7.35-21.06,3.81-27.49-13.89-24.48-32.28,1.8-5.36,5.87-8,11.9-8.19C56.44,469.94,69.43,475.46,62.7,498.05Zm4.85,67.25a2.79,2.79,0,0,1-3.92,1.18,22.44,22.44,0,0,0-6.8-3.31c-2.16-.74-5.12,1.42-2.56,3.7a38.61,38.61,0,0,1,8.94,5.69C46,583.68,39.59,569.08,36.74,546c.18-2.9,2.32-3.84,5.81-3.42C57.22,544.78,70.32,548.33,67.55,565.3Z" transform="translate(0.02 -347.51)"/><path class="c" d="M32.44,618.11c.62-2.83,1.18-3.9,1.54,0l3.5,18.22c.46,1.77,0,2.55-1.39,2.48H28.43c-1.31-.29-1.75-1-1.31-2.18ZM345,639.94h11.54C356.77,632,344.49,633.12,345,639.94Zm-3.2,0c.8-4.41,2.59-6.47,6.87-7.85l44.68-137.86-19.06-97.71c-1.33-10.53-9.2-10-10.67,0L306.26,639.94Z" transform="translate(0.02 -347.51)"/><path class="d" d="M412.54,639.89c3.71-.08,5.36-2.06,5.2-5.69l.52-66.21c-.43-2.37-1.63-3.64-3.69-3.69H383.91c-2.2-.07-3.39-1.23-3.5-3.51V537.45c.08-1.55,1-2.39,2.84-2.48h34.53a1.69,1.69,0,0,0,1.51-1.69v-6.53c0-3.58-1.51-5.85-5-6.35l-33.86.36a2.24,2.24,0,0,1-2-.6l-14.57-12c-1.59-1.22-1.55-2.39,0-3.5L376.42,493a3.13,3.13,0,0,1,2.78-.85h37.12c1.4,0,2-.61,1.7-1.81v-9.92c0-7.53,26.81-7.05,26.06-.36v10.16c-.07.87.37,1.24,1.15,1.27l38.09.12c1.52.23,2.37,1,2.42,2.3v23.4c-.1,1.84-.94,2.72-2.48,2.72l-35.61.06c-2.71.53-3.92,2.68-4,6l-.06,6.9a1.47,1.47,0,0,0,1.09,1.45l27-.12a7.23,7.23,0,0,1,3.7.88l20.24,12.48c2,1.77,2.26,3.41,0,4.84l-15.34,10.94a5.4,5.4,0,0,1-3.41,1h-29.2q-3.56.24-3.57,4.17l.12,64.93c-.17,4.08,1.63,6.65,5.17,6.59L449,642h-36.4Z" transform="translate(0.02 -347.51)"/><path class="e" d="M440.83,479.64c-.73,4.21-19.12,3.74-19.44.08C421.91,475.68,440.21,475.68,440.83,479.64Zm-62.58,15.9-10.05,9.08c-1.65,1.29-1.55,2.56,0,3.82L378.25,516a1.66,1.66,0,0,0,1.32.41H470a2,2,0,0,0,2.21-2v-17.5c0-1.21-.58-1.88-1.77-1.87h-91A2,2,0,0,0,378.25,495.54Zm6.44,45.1v17.3c-.07,1,.69,1.54,2.06,1.6h79.53a1.59,1.59,0,0,0,1.27-.35l10.62-7.26c2.73-1.86,3.18-3.72,0-5.59l-10.56-6.9a3.67,3.67,0,0,0-1.17-.28H386.75C385.35,539.08,384.64,539.56,384.69,540.64Zm99,6.33c2.29,2,1.77,3.12,0,4.89l-12,7.69h6.34l10.8-6.47s3.9-2.44,3.89-3.42-3.55-3-3.55-3L477,539.15h-5.1Z" transform="translate(0.02 -347.51)"/><path class="c" d="M424.75,568.42h13.48c1.4,0,2,1.89,1.84,3.65v63.86c.05,1.24-.56,1.76-1.75,1.66H423.79c-1.23,0-1.76-.56-1.75-1.66L422.5,572C422.41,570.13,423.32,568.56,424.75,568.42Zm15.37-33.77V523.48a1.85,1.85,0,0,0-1.68-1.6H424.6c-1.41,0-2.12.56-2,1.78v11Zm-18.41-48.84v4.62c0,1.11.54,1.58,1.41,1.57h15.8c1,0,1.79-.43,1.8-1.31v-4.88l0-2a32.38,32.38,0,0,1-19.05,0ZM480.1,495h-5.37a1.28,1.28,0,0,1,.8,1.11l0,19.1a1.6,1.6,0,0,1-.34,1.12H480c1.07-.08,1.66-.85,1.6-2.53V497.06C481.65,495.7,481.16,495,480.1,495Zm-7.9,6-99.74-.28L371,502.1l101.18.92Zm-96.57,9.71c-.94,0-.92,1.62,0,1.66l84.71.63v-.92Zm94.1-4.1-38-.94c-.78,0-.78,1.38,0,1.35l38,1A.7.7,0,1,0,469.73,506.64Zm-79.58-1.74c2.9-.85,3.94,1.81,1.38,3.92-.8.65.55,2.54,1.33,1.92,2.44-.94,3.08-2.76,2.49-5.16-.84-3.24-3.15-3.66-6.27-2.56C388.16,503.4,388.89,505.41,390.15,504.9Zm-5.21-1.72c.78-.94-.21-1.46-1.47-1a4,4,0,0,0-.65,7.69c1.17.71,2.43-1,1.28-1.39C380.85,507.15,382.3,505.08,384.94,503.18Zm-7.5,1.75c-.67,0-1.22.35-1.22.77s.55.78,1.22.78,1.23-.35,1.23-.78S378.12,504.93,377.44,504.93Zm7.27,40.93,0,1.35,95.18.47a6.81,6.81,0,0,0-1.7-1.34ZM416.24,550a.67.67,0,1,0,0,1.33l61.46.92a11.57,11.57,0,0,0,1.75-1.35Zm-6.69,9.56c0-1.2.39-1.8,1.64-1.83l9,0c.91,0,1.47.57,1.48,1.81H424c0-2.53-.21-4.09-1.86-4.09H410.28c-2.11,0-2.84,1.27-2.81,4.08Zm-24.86-18.64,65.18.82c.82,0,.78-.89,0-.88l-65.07-.91A2.46,2.46,0,0,0,384.69,540.91Z" transform="translate(0.02 -347.51)"/><path class="e" d="M435.39,522v12.66l-2.27,0V522Zm1.9,0v6.55c0,1.58,2.83,1.63,2.83,0v-5C439.81,522.18,438.92,521.7,437.29,522Zm-14.71,1.71v11l1.93,0,.81-12.76C423.66,521.71,422.51,522.05,422.58,523.66Zm.44-39.45v6.86c0,.76,1.45.72,1.45,0v-6.54A13.84,13.84,0,0,1,423,484.21Zm8.66,1.08V492l1.86,0v-6.81C432.94,485.25,432.32,485.28,431.68,485.29Zm8.22-1.2v2c0,.33.29.48.78.49l.08-2.76ZM425.78,595.52a1.39,1.39,0,1,0-2.78,0l.42,42h2.36Zm4.55,42-.45-29.6c0-1.08-1.84-1.08-1.84,0l.47,29.6Zm5.53,0-.53-22.37a.91.91,0,1,0-1.81,0l.42,22.37Zm-8.74-69.15.88,33a.71.71,0,0,0,1.42,0l-.45-33Zm12.33.66v4.67c0,.26.25.42.62.42V571A4.19,4.19,0,0,0,439.45,569.07Zm-4.56-.65v14.33a.79.79,0,1,0,1.58,0l.23-14.33Zm5.17,13L433,587.57a.91.91,0,0,0-.38.81l-.37,18.44a1.1,1.1,0,0,0,.48.95l7.36,6.07,0-2.91-5.72-4.21a1.19,1.19,0,0,1-.35-.8l.41-16.74a.66.66,0,0,1,.26-.65l5.37-5.26Zm0,21.21-.65-.66a1.6,1.6,0,0,1-.42-.8l0-10.84a1.42,1.42,0,0,1,.42-.75l.64-.88,0-2.81-2.46,2.28a2.43,2.43,0,0,0-.45,1V602a1.77,1.77,0,0,0,.25.89l2.66,2.24Z" transform="translate(0.02 -347.51)"/><path class="b" d="M182.76,615c0-1.62,1-2.47,3.31-2.35l17.45.21-.12,24.33c.17,6.33,19.12,6.79,20.21,0l.22-24.67,20.64.13a2.49,2.49,0,0,1,2.89,2.56l.42,22c.83,7.08,18.15,7.08,18.38,0l.41-21.22a2.3,2.3,0,0,1,2.35-2.55l6.54-.1c2.45,0,3.56,1.05,3.68,2.86l.11,21c1.15,6.91,15.39,7.08,18,0l.31-22.95c.53-2.68,3-.62,3.77-7l.49-32.24c.08-2.07,1.36-3.16,3.7-3.37,15.06-.63,22.5-4.54,24.76-14.72,10.21-19.15,14-34.43.51-39.37-.65-.22-.95-.6-.92-1.12v-4.29c3.52-.05,7.11,4.2,10.75,12.15C351.05,498.5,335.71,470,313,460c1.27-3.4,1.22-5.94-1.19-11.28a24.32,24.32,0,0,0,5-8.55,5.06,5.06,0,0,0-3.89-2.56A23.11,23.11,0,0,1,309,446.9c-9.4-10.15-29.37-2.91-32.48,10.57-1.15,5-9.77,3.23-12.53,8.06-8.82,3-12.69,10.45-18.69,14.75-5.39-4.55-11.61-7.71-20-7.16-3.3-.3-4.83,2.15-3,4.4,16.47,10.38-6.56,21.49.41,31.08-9.41,1-7.88,11.8-8.39,22.9,0,2.54-1.5,3.72-4.19,3.78-30.11.78-44.29-.94-45.91,13.5-.42,1.77-1.69,2.75-4,2.76-54.86,1.07-49.27,41.28-47.67,77.75-.07,2.56.33,3.85,2.42,3.82l18-.22a2.34,2.34,0,0,0,2-2.42c1-9,2.06-16.68,3.24-17.48.89,2.18,1.22,8,1.11,16.75-.25,1.59.39,2.5,2.2,2.51l13.39-.15a2.72,2.72,0,0,0,3.06-2.66c-.15-17.77.21-34.44,5.35-40.62l.55,48.35c.19,6.79,18.54,7.08,18.65,0Z" transform="translate(0.02 -347.51)"/><path class="f" d="M243.37,586.14c8.44.07,10.67-6.08,13.24-15.19l39,.33c1.81,0,2.25.65,2.21,2.66l-.33,31.69c-.13,4.48-4.67,2.14-4.09,7v21.49c-.06,2.34-.6,3.34-2.47,3.38H285c-2.4,0-2.85-1.24-2.72-3.38V612.9c-.12-3-1.23-4.69-3.64-4.67H266.41c-2.81.25-4,2.06-3.89,5v21.24c.13,2-.4,3-2,3h-7.07c-1.85,0-2.54-.91-2.54-3V613.22c0-3.49-1.37-5-3.76-5H241Zm-36,47.87c0,2.1,1,3.13,3,3.14h6.57c2.09.06,3.07-1,3.06-3V612.84l-12.6.07Zm12.51-117.53v22.15c-.08,3.63,1.33,5.38,4,5.53l12.68-.14c19.48-.7,17.94,7.5,20.88,19.9.83,2.42,1.91,3.43,3.16,3.44h49.75c8.57,0,15-3.83,15.15-8.93-2,2.8-9.73,2.37-16,1.36-1.61-.49-1.75-4.07.21-4.35,8.76,1.13,14.65.57,17.31-2.52,9-6.52,13.8-27,5.6-31.6-1.62-1.28-12.83-.89-21.65-.91-1.19-.56-1.19-3.51.56-3.51,5,.25,9.67.22,13.88.32a13.93,13.93,0,0,0,0-6.76c-19.89-10.24-24.67,3.08-41.84-5.26-6.38-3.64.63,7.92-5.11,12.61-1.78-4.65-3.7-8.61-6.52-8.34-.77,12.41-7,17.47-18.5,19.77-4,.58-6.31-1.62-3.16-5.67,2.71-2.81-4-11-8.75-10.73H223.86A3.84,3.84,0,0,0,219.86,516.48Z" transform="translate(0.02 -347.51)"/><path class="g" d="M215.8,541c.45,7.16,4.61,5.49,4.83,7.45,2.4,12.06-.84,13.44-9.35,4.85-9.8,3.79-.12,40.67,27.94,20a33.9,33.9,0,0,0,0,9.81c.51,2.15,1.5,3,4.15,3.07V606c-.05,1.61-.64,2.17-2.42,2.19H182.77a3.62,3.62,0,0,0-3,2.89v24.81a2.77,2.77,0,0,1-2.86,2.54H169c-1.86,0-2.64-.9-2.43-2.77l-.28-82.41c.29-17.36,26.7-13.31,48.29-13.23A1.07,1.07,0,0,1,215.8,541Zm24.5-24.65h-9.18c-3.19.58-4.92,2.36-5.43,5.12l.35,14.91c0,2.32,8.36,4.12,11,1.75l.35-5.86,4.33-1.88.18-14Z" transform="translate(0.02 -347.51)"/><path class="h" d="M163.88,573.84v11c-7.83,4.88-9.27,22.15-9,42.76,0,1.35-.27,1.95-1.27,2h-9.52c-1.3-.1-1.95-.72-2-1.86-.47-8.65-.2-14-3.89-19-3.77,4.12-5.08,11.12-5.52,19.13a1.92,1.92,0,0,1-2.06,1.76H117.3c-1.33,0-1.92-.63-2-1.76-3-45.8,2.45-75.32,48.54-72.48Zm0,0h2.52l-.06-18.28-2.46-.26Zm68.59-25.36H224c0,6.5.46,9.12-1,11.25-4.44,2.75-8.61-.45-12.27-3.91-3.64,9.09,3.16,21.81,12.75,21.81,7.23,0,13-4,17.64-9.18C239.89,562.52,236.63,554.89,232.47,548.48Zm-7.74-45c-.53,2.41,1.85,6.63,4.34,6.51l11.47.11,10.24-8,27.56-2.1c7.72,4.5,16.27,6.28,21.82,5.08,22.34-4.18,38.22,6.29,40.19,13.12,2.51-21.31-7.63-45.13-26.76-52.71-2.43-1.23-3.94,1.33-5.07,2.93-12,10.88-26.33,12.36-42.17,3.68-2.32-1.48-3.37-2.24-5.38-.84-3.81,2.34-8.42,6.7-13.23,11.51-1.37,1.2-2.22,1.67-4.08,1.06-3.46-4.89-9.82-7.08-14.86-8.32-1.85-.95-3.16.67-2,1.87C235.46,482.5,229.21,493.57,224.73,503.5Z" transform="translate(0.02 -347.51)"/><path class="i" d="M138.22,608.65c-1.35-21.53,6-34.32,25.66-34.81v11c-8.21,5.8-9.24,23.16-9,42.76-.07,1.35,0,2.09-1.86,2h-8.93a1.73,1.73,0,0,1-2-1.86C141.71,619.48,141,612.28,138.22,608.65Zm25.66-23.83a6.47,6.47,0,0,1,2.56-1.21l0-9.77h-2.52Zm106.38-80.2c4.58,1.56,7.5,7.08,8.34,9.49,1-3.05.82-10.05-.26-14.11-10.47-15-35.52-10.08-37.8,10.12,13.79,2.72,15.22,12,10.82,16.76C262,526.88,269.84,519.1,270.26,504.62Zm-29.2,63.83c.47,5.87-1.3,15.9,2.31,15.89,5.58,0,9.93-5.56,10.82-17.91-.89-9.74-3.15-17.95-10.09-17.95H232.47A67.82,67.82,0,0,1,241.06,568.45Z" transform="translate(0.02 -347.51)"/><path class="d" d="M240.3,516.34a2.05,2.05,0,0,1,3.94,0v14.48c-.18,1.36-1.23,1.79-3.11,1.84h-2.27c-.82,0-.82,1.53,0,1.7l2.69.4a2.09,2.09,0,0,1,0,4.11c-11.79.74-13-9.93-2.69-10.41a1.48,1.48,0,0,0,1.48-1.45Zm83.76,7.4c-1.9,0-3.43,1-3.43,2.2s1.53,2.19,3.43,2.19,3.43-1,3.43-2.19S326,523.74,324.06,523.74Zm-33.34-1.45a4.66,4.66,0,1,0,4.66,4.65A4.66,4.66,0,0,0,290.72,522.29Z" transform="translate(0.02 -347.51)"/><path class="j" d="M92.68,572a2,2,0,0,1,2.51,2.46c-3.92,11.92-11.09,20.34-19.68,13.28C71.69,581.18,76.75,574.63,92.68,572ZM90,519.66a2.79,2.79,0,0,0,4,1l4.25-4c1.92-1.77,4.81.16,3.53,2l-3.93,5.53c-.94,1.48-.26,2.61,1.44,3.53,13.35,3.42,17.69-7.38,17.57-22.38.12-2.73-.38-3.85-3.21-3.93C96.33,501.84,83.82,505.17,90,519.66ZM511.08,639.78v-5.63a2.64,2.64,0,0,1,2.14-3.15l5.81-.07c.3-2.27-.48-3.54-3.14-3.32H501.28c-1.47-.06-2.34.38-2.33,1.52v10.65h12.13ZM172.19,390a1.39,1.39,0,0,0-.35,2.25,19.21,19.21,0,0,0,5.23,5.54c1,.93-.41,3.1-1.45,2.36a33,33,0,0,1-5.76-5.07c-1.12-.81-2-.72-2.7.44-.38,6.55,8.74,11.23,16.64,7.12,2.7-1.14,3.24-1.87.84-4C179.88,393.6,174.85,387.53,172.19,390Z" transform="translate(0.02 -347.51)"/><path class="e" d="M598.27,533.28a2.7,2.7,0,0,1,3.08,2.09c-.52,25.23-4.52,44.37-23.23,37.71-1.85-1-2.08-2.4-1.18-4a46.51,46.51,0,0,0,5.93-9.51c1.27-1.81-1.76-4-3.21-1.9a39.08,39.08,0,0,1-5.44,8,2.6,2.6,0,0,1-3.93-.36C558.3,542.42,576.86,536.56,598.27,533.28Zm-75,99.69h-7.43c-1.63-.09-2.55.46-2.5,1.88v4.93H533.6v-4.93c.06-1.34-.73-2-2.57-1.88ZM296.5,455.59l6.75-3.43c1.75-1.22,1.79-2.49,0-3.8-9-8.54-21.47.16-24.65,13.24-.7,2.62-8.38,1.14-10.24,3.78-1.19,1.91-.81,2.42,0,3.14,17.14,11.57,40.58,4.25,42.21-12.27-.09-2.64-.79-4.15-3.23-2.74l-8.93,4.93C296.28,459.74,294.36,457.21,296.5,455.59Zm17.28-87.33c1.17-.29,1.62-1,1.3-2l-.94-2.44c-.34-1.6,1.6-2.39,2.29-1l1.66,2.29a1.35,1.35,0,0,0,2.34-.16c3.59-6.36-2.67-10.09-9.41-13.68-1.9-.85-2.74-.38-3.12,1.61C305.24,361.92,306.75,368.42,313.78,368.26Z" transform="translate(0.02 -347.51)"/></svg>